<svg width="341" height="62" viewBox="0 0 341 62" fill="none" xmlns="http://www.w3.org/2000/svg">
<rect x="235.236" y="16.1438" width="81.4915" height="27.7584" rx="5" transform="rotate(-0.101118 235.236 16.1438)" fill="#0A66C2"/>
<g clip-path="url(#clip0_100_4)">
<path d="M261.868 35.6329L259.498 35.6329L259.498 31.9202C259.498 31.0349 259.482 29.8952 258.265 29.8952C257.03 29.8952 256.841 30.8599 256.841 31.8558L256.841 35.6327L254.47 35.6327L254.47 27.9979L256.746 27.9979L256.746 29.0413L256.778 29.0413C257.006 28.6519 257.335 28.3315 257.73 28.1143C258.126 27.8972 258.573 27.7913 259.023 27.808C261.426 27.808 261.869 29.3885 261.869 31.4446L261.868 35.6329ZM251.795 26.9544C251.035 26.9545 250.419 26.3386 250.419 25.5788C250.419 24.819 251.035 24.2029 251.795 24.2028C252.555 24.2026 253.171 24.8185 253.171 25.5783C253.171 25.9432 253.026 26.2931 252.768 26.5512C252.51 26.8093 252.16 26.9543 251.795 26.9544ZM252.981 35.633L250.607 35.633L250.607 27.9979L252.981 27.9979L252.981 35.633ZM263.05 22.0011L249.416 22.0011C248.772 21.9939 248.243 22.5101 248.236 23.1544L248.236 36.8452C248.243 37.4899 248.772 38.0066 249.416 37.9999L263.05 37.9999C263.696 38.0079 264.227 37.4912 264.236 36.8452L264.236 23.1534C264.226 22.5077 263.696 21.9916 263.05 22.0001" fill="#CBD5E1"/>
</g>
<rect x="134.249" y="16" width="81.4915" height="27.7584" rx="5" transform="rotate(0.0217284 134.249 16)" fill="#2AABEE"/>
<g clip-path="url(#clip1_100_4)">
<path d="M148.686 21.039C146.201 21.0287 143.813 22.0064 142.05 23.7554C140.286 25.5052 139.289 27.8839 139.278 30.3687C139.268 32.8525 140.246 35.2412 141.995 37.0049C143.743 38.7685 146.123 39.7661 148.608 39.7765C151.092 39.7868 153.48 38.8091 155.243 37.0601C157.007 35.311 158.005 32.9305 158.015 30.4468C158.026 27.963 157.048 25.5743 155.298 23.8106C153.55 22.047 151.17 21.0494 148.686 21.039Z" fill="url(#paint0_linear_100_4)"/>
<path d="M143.519 30.2874C146.256 29.109 148.08 28.3321 148.992 27.9569C151.599 26.8855 152.14 26.6998 152.493 26.6949C152.571 26.694 152.743 26.7139 152.856 26.8055C152.949 26.8827 152.975 26.9867 152.988 27.0598C152.999 27.1327 153.015 27.2989 153.001 27.4286C152.854 28.9094 152.229 32.5018 151.912 34.1598C151.778 34.8613 151.518 35.0957 151.268 35.1176C150.723 35.1654 150.312 34.7541 149.786 34.4066C148.965 33.8625 148.5 33.5242 147.702 32.9934C146.779 32.38 147.381 32.0474 147.91 31.5022C148.048 31.3594 150.455 29.189 150.501 28.9914C150.507 28.9667 150.514 28.8745 150.458 28.8257C150.404 28.7767 150.324 28.793 150.265 28.806C150.182 28.8244 148.862 29.6896 146.302 31.4015C145.927 31.6567 145.589 31.7804 145.284 31.7726C144.95 31.764 144.307 31.5794 143.829 31.4219C143.244 31.2287 142.778 31.1259 142.82 30.8021C142.841 30.6336 143.075 30.462 143.519 30.2874Z" fill="white"/>
</g>
<path d="M158.637 26.8317L158.637 25.7273L164.439 25.7273L164.439 26.8317L162.191 26.8317L162.191 33L160.884 33L160.884 26.8317L158.637 26.8317ZM167.125 33.1065C166.578 33.1065 166.105 32.9929 165.708 32.7656C165.312 32.536 165.008 32.2116 164.795 31.7926C164.582 31.3712 164.476 30.8752 164.476 30.3047C164.476 29.7436 164.582 29.2512 164.795 28.8274C165.011 28.4013 165.311 28.0698 165.697 27.8331C166.083 27.594 166.536 27.4744 167.057 27.4744C167.393 27.4744 167.711 27.5289 168.009 27.6378C168.31 27.7443 168.575 27.91 168.804 28.1349C169.036 28.3598 169.219 28.6463 169.351 28.9943C169.484 29.34 169.55 29.7519 169.55 30.2301L169.55 30.6243L165.079 30.6243L165.079 29.7578L168.318 29.7578C168.315 29.5116 168.262 29.2926 168.158 29.1009C168.054 28.9067 167.908 28.754 167.721 28.6428C167.537 28.5315 167.321 28.4759 167.075 28.4759C166.812 28.4759 166.581 28.5398 166.382 28.6676C166.184 28.7931 166.029 28.9588 165.917 29.1648C165.808 29.3684 165.753 29.5921 165.75 29.8359L165.75 30.5923C165.75 30.9096 165.808 31.1818 165.924 31.4091C166.04 31.634 166.203 31.8068 166.411 31.9276C166.619 32.0459 166.863 32.1051 167.142 32.1051C167.329 32.1051 167.499 32.0791 167.65 32.027C167.802 31.9725 167.933 31.8932 168.044 31.7891C168.156 31.6849 168.24 31.5559 168.297 31.402L169.497 31.5369C169.421 31.8542 169.277 32.1312 169.064 32.3679C168.853 32.6023 168.583 32.7846 168.254 32.9148C167.925 33.0426 167.548 33.1065 167.125 33.1065ZM171.923 25.7273L171.923 33L170.638 33L170.638 25.7273L171.923 25.7273ZM175.66 33.1065C175.113 33.1065 174.641 32.9929 174.243 32.7656C173.848 32.536 173.543 32.2116 173.33 31.7926C173.117 31.3712 173.011 30.8752 173.011 30.3047C173.011 29.7436 173.117 29.2512 173.33 28.8274C173.546 28.4013 173.846 28.0698 174.232 27.8331C174.618 27.594 175.072 27.4744 175.592 27.4744C175.929 27.4744 176.246 27.5289 176.544 27.6378C176.845 27.7443 177.11 27.91 177.34 28.1349C177.572 28.3598 177.754 28.6463 177.886 28.9943C178.019 29.34 178.085 29.7519 178.085 30.2301L178.085 30.6243L173.614 30.6243L173.614 29.7578L176.853 29.7578C176.851 29.5116 176.797 29.2926 176.693 29.1009C176.589 28.9067 176.443 28.754 176.256 28.6428C176.072 28.5315 175.856 28.4759 175.61 28.4759C175.347 28.4759 175.116 28.5398 174.918 28.6676C174.719 28.7931 174.564 28.9588 174.452 29.1648C174.344 29.3684 174.288 29.5921 174.286 29.8359L174.286 30.5923C174.286 30.9096 174.344 31.1818 174.46 31.4091C174.576 31.634 174.738 31.8068 174.946 31.9276C175.154 32.0459 175.398 32.1051 175.678 32.1051C175.865 32.1051 176.034 32.0791 176.185 32.027C176.337 31.9725 176.468 31.8932 176.58 31.7891C176.691 31.6849 176.775 31.5559 176.832 31.402L178.032 31.5369C177.956 31.8542 177.812 32.1312 177.599 32.3679C177.388 32.6023 177.118 32.7846 176.789 32.9148C176.46 33.0426 176.084 33.1065 175.66 33.1065ZM181.545 35.1591C181.083 35.1591 180.687 35.0964 180.355 34.9709C180.024 34.8478 179.758 34.6821 179.556 34.4737C179.355 34.2654 179.215 34.0346 179.137 33.7813L180.295 33.5007C180.347 33.6072 180.423 33.7126 180.522 33.8168C180.622 33.9233 180.755 34.0109 180.923 34.0795C181.094 34.1506 181.308 34.1861 181.566 34.1861C181.931 34.1861 182.233 34.0973 182.472 33.9197C182.711 33.7446 182.83 33.4557 182.83 33.0533L182.83 32.0199L182.767 32.0199C182.7 32.1525 182.603 32.2886 182.475 32.4283C182.35 32.5679 182.183 32.6851 181.975 32.7798C181.769 32.8745 181.509 32.9219 181.197 32.9219C180.778 32.9219 180.398 32.8236 180.057 32.6271C179.718 32.4283 179.449 32.1323 179.247 31.7393C179.048 31.344 178.949 30.8492 178.949 30.255C178.949 29.656 179.048 29.1506 179.247 28.7386C179.449 28.3243 179.72 28.0107 180.061 27.7976C180.401 27.5821 180.781 27.4744 181.2 27.4744C181.52 27.4744 181.783 27.5289 181.989 27.6378C182.197 27.7443 182.363 27.8733 182.486 28.0249C182.609 28.174 182.703 28.3149 182.767 28.4474L182.838 28.4474L182.838 27.5455L184.105 27.5455L184.105 33.0888C184.105 33.5552 183.994 33.9411 183.772 34.2464C183.549 34.5518 183.245 34.7803 182.859 34.9318C182.473 35.0833 182.035 35.1591 181.545 35.1591ZM181.556 31.9134C181.828 31.9134 182.06 31.8471 182.252 31.7145C182.443 31.5819 182.589 31.3913 182.688 31.1428C182.788 30.8942 182.838 30.5959 182.838 30.2479C182.838 29.9046 182.788 29.6039 182.688 29.3459C182.591 29.0878 182.447 28.8878 182.255 28.7457C182.066 28.6013 181.833 28.5291 181.556 28.5291C181.269 28.5291 181.03 28.6037 180.838 28.7528C180.647 28.902 180.502 29.1068 180.405 29.3672C180.308 29.6252 180.259 29.9188 180.259 30.2479C180.259 30.5817 180.308 30.8741 180.405 31.125C180.504 31.3736 180.65 31.5677 180.842 31.7074C181.036 31.8447 181.274 31.9134 181.556 31.9134ZM185.423 33L185.423 27.5455L186.669 27.5455L186.669 28.4545L186.726 28.4545C186.825 28.1397 186.996 27.897 187.237 27.7266C187.481 27.5537 187.759 27.4673 188.072 27.4673C188.143 27.4673 188.222 27.4709 188.31 27.478C188.4 27.4827 188.474 27.491 188.534 27.5028L188.534 28.6854C188.479 28.6664 188.393 28.6499 188.274 28.6357C188.158 28.6191 188.046 28.6108 187.937 28.6108C187.703 28.6108 187.492 28.6617 187.305 28.7635C187.12 28.8629 186.975 29.0014 186.868 29.179C186.762 29.3565 186.708 29.5613 186.708 29.7933L186.708 33L185.423 33ZM190.86 33.1101C190.514 33.1101 190.203 33.0485 189.926 32.9254C189.651 32.8 189.433 32.6153 189.272 32.3714C189.114 32.1276 189.034 31.8269 189.034 31.4695C189.034 31.1617 189.091 30.9072 189.205 30.706C189.318 30.5047 189.473 30.3438 189.67 30.223C189.866 30.1023 190.088 30.0111 190.334 29.9496C190.583 29.8857 190.839 29.8395 191.105 29.8111C191.424 29.7779 191.683 29.7483 191.882 29.7223C192.081 29.6939 192.226 29.6513 192.316 29.5945C192.408 29.5353 192.454 29.4441 192.454 29.321L192.454 29.2997C192.454 29.0322 192.375 28.825 192.216 28.6783C192.057 28.5315 191.829 28.4581 191.531 28.4581C191.216 28.4581 190.966 28.5268 190.781 28.6641C190.599 28.8014 190.476 28.9635 190.412 29.1506L189.212 28.9801C189.307 28.6487 189.463 28.3717 189.681 28.1491C189.898 27.9242 190.165 27.7562 190.48 27.6449C190.794 27.5313 191.142 27.4744 191.524 27.4744C191.786 27.4744 192.048 27.5052 192.308 27.5668C192.569 27.6283 192.807 27.7301 193.022 27.8722C193.238 28.0118 193.41 28.2024 193.541 28.4439C193.673 28.6854 193.74 28.9872 193.74 29.3494L193.74 33L192.504 33L192.504 32.2507L192.461 32.2507C192.383 32.4022 192.273 32.5443 192.131 32.6768C191.991 32.8071 191.815 32.9124 191.602 32.9929C191.391 33.071 191.144 33.1101 190.86 33.1101ZM191.193 32.1655C191.451 32.1655 191.675 32.1146 191.865 32.0128C192.054 31.9086 192.2 31.7713 192.301 31.6009C192.405 31.4304 192.458 31.2446 192.458 31.0433L192.458 30.4006C192.417 30.4337 192.349 30.4645 192.252 30.4929C192.157 30.5213 192.05 30.5462 191.932 30.5675C191.814 30.5888 191.696 30.6077 191.58 30.6243C191.464 30.6409 191.364 30.6551 191.279 30.6669C191.087 30.6929 190.915 30.7356 190.764 30.7947C190.612 30.8539 190.493 30.9368 190.405 31.0433C190.317 31.1475 190.274 31.2824 190.274 31.4482C190.274 31.6849 190.36 31.8636 190.533 31.9844C190.706 32.1051 190.926 32.1655 191.193 32.1655ZM195.032 33L195.032 27.5455L196.261 27.5455L196.261 28.4723L196.325 28.4723C196.438 28.1598 196.627 27.916 196.889 27.7408C197.152 27.5632 197.466 27.4744 197.83 27.4744C198.2 27.4744 198.511 27.5644 198.764 27.7443C199.02 27.9219 199.2 28.1645 199.304 28.4723L199.361 28.4723C199.482 28.1693 199.685 27.9278 199.972 27.7479C200.261 27.5656 200.603 27.4744 200.998 27.4744C201.5 27.4744 201.91 27.633 202.227 27.9503C202.544 28.2675 202.703 28.7304 202.703 29.3388L202.703 33L201.414 33L201.414 29.5376C201.414 29.1991 201.324 28.9517 201.144 28.7955C200.964 28.6368 200.744 28.5575 200.483 28.5575C200.173 28.5575 199.93 28.6546 199.755 28.8487C199.582 29.0405 199.496 29.2902 199.496 29.598L199.496 33L198.235 33L198.235 29.4844C198.235 29.2027 198.15 28.9777 197.98 28.8097C197.812 28.6416 197.591 28.5575 197.319 28.5575C197.134 28.5575 196.966 28.6049 196.815 28.6996C196.663 28.7919 196.543 28.9233 196.453 29.0938C196.363 29.2618 196.318 29.4583 196.318 29.6832L196.318 33L195.032 33Z" fill="white"/>
<g clip-path="url(#clip2_100_4)">
<rect x="34.2475" y="15" width="81.92" height="27.76" rx="5" transform="rotate(0.0217284 34.2475 15)" fill="#303030"/>
<g clip-path="url(#clip3_100_4)">
<path d="M62.1249 21.3125C62.1249 19.7268 60.8357 18.4375 59.2499 18.4375L44.875 18.4375C43.2893 18.4375 42 19.7268 42 21.3125L42 35.6875C42 37.2732 43.2893 38.5625 44.875 38.5625L59.2499 38.5625C60.8357 38.5625 62.1249 37.2732 62.1249 35.6875L62.1249 21.3125ZM53.9402 35.3146C53.9402 35.2338 53.9402 35.0451 53.9447 34.7936C53.9492 34.2814 53.9492 33.4998 53.9492 32.8305C53.9492 32.1297 53.7156 31.685 53.4415 31.4514C55.1036 31.2672 56.8556 31.0381 56.8556 28.1676C56.8556 27.35 56.5636 26.9412 56.0874 26.4156C56.1638 26.2225 56.4199 25.4273 56.0111 24.3941C55.3867 24.201 53.9581 25.1982 53.9581 25.1982C53.3652 25.032 52.7228 24.9467 52.0894 24.9467C51.456 24.9467 50.8136 25.032 50.2207 25.1982C50.2207 25.1982 48.7922 24.201 48.1677 24.3941C47.759 25.4229 48.0105 26.218 48.0914 26.4156C47.6152 26.9412 47.3906 27.35 47.3906 28.1676C47.3906 31.0246 49.0662 31.2672 50.7283 31.4514C50.5127 31.6445 50.3195 31.977 50.2521 32.4531C49.8254 32.6463 48.7338 32.9787 48.0824 31.8287C47.6736 31.1189 46.9369 31.0605 46.9369 31.0605C46.2092 31.0516 46.8875 31.5188 46.8875 31.5188C47.3726 31.7434 47.714 32.6059 47.714 32.6059C48.1498 33.94 50.2341 33.4908 50.2341 33.4908C50.2341 33.8951 50.2386 34.4656 50.2386 34.8654C50.2386 35.0811 50.2431 35.2518 50.2431 35.3146C50.2431 35.5078 50.1084 35.7414 49.7265 35.674C46.7617 34.6812 44.6863 31.8602 44.6863 28.5629C44.6863 24.4391 47.8398 21.308 51.9636 21.308C56.0874 21.308 59.4296 24.4391 59.4296 28.5629C59.4341 31.8602 57.4216 34.6857 54.4568 35.674C54.0794 35.7414 53.9402 35.5078 53.9402 35.3146ZM49.8748 32.8529C49.8658 32.7855 49.9242 32.7271 50.0095 32.7092C50.0949 32.7002 50.1757 32.7361 50.1847 32.7945C50.1982 32.8529 50.1398 32.9113 50.05 32.9293C49.9646 32.9473 49.8838 32.9113 49.8748 32.8529ZM49.466 32.9967C49.3672 33.0057 49.2998 32.9563 49.2998 32.8889C49.2998 32.8305 49.3672 32.7811 49.457 32.7811C49.5423 32.7721 49.6232 32.8215 49.6232 32.8889C49.6232 32.9473 49.5558 32.9967 49.466 32.9967ZM48.8236 32.8979C48.7382 32.8799 48.6799 32.8125 48.6978 32.7541C48.7158 32.6957 48.8056 32.6688 48.882 32.6867C48.9718 32.7137 49.0302 32.7811 49.0078 32.8395C48.9898 32.8979 48.9 32.9248 48.8236 32.8979ZM48.2621 32.5699C48.1947 32.5115 48.1767 32.4262 48.2217 32.3857C48.2621 32.3363 48.3474 32.3453 48.4148 32.4127C48.4732 32.4711 48.4957 32.5609 48.4552 32.5969C48.4148 32.6463 48.3295 32.6373 48.2621 32.5699ZM47.8802 32.1207C47.8308 32.0533 47.8308 31.977 47.8802 31.9455C47.9297 31.9051 48.006 31.9365 48.0465 32.0039C48.0959 32.0713 48.0959 32.1521 48.0465 32.1881C48.006 32.215 47.9297 32.1881 47.8802 32.1207ZM47.5972 31.7254C47.5478 31.667 47.5388 31.5996 47.5793 31.5682C47.6197 31.5277 47.6871 31.5502 47.7365 31.5951C47.7859 31.6535 47.7949 31.7209 47.7545 31.7523C47.714 31.7928 47.6467 31.7703 47.5972 31.7254ZM47.3277 31.4379C47.2693 31.4109 47.2424 31.3615 47.2603 31.3211C47.2783 31.2941 47.3277 31.2807 47.3861 31.3031C47.4445 31.3346 47.4715 31.384 47.4535 31.4199C47.4355 31.4604 47.3771 31.4693 47.3277 31.4379Z" fill="white"/>
</g>
<path d="M70.7173 33L70.7173 25.7273L75.3764 25.7273L75.3764 26.8317L72.0348 26.8317L72.0348 28.8061L75.0568 28.8061L75.0568 29.9105L72.0348 29.9105L72.0348 33L70.7173 33ZM78.4988 33.1065C77.9661 33.1065 77.5044 32.9893 77.1138 32.755C76.7232 32.5206 76.4202 32.1927 76.2047 31.7713C75.9917 31.3499 75.8851 30.8575 75.8851 30.294C75.8851 29.7306 75.9917 29.237 76.2047 28.8132C76.4202 28.3894 76.7232 28.0604 77.1138 27.826C77.5044 27.5916 77.9661 27.4744 78.4988 27.4744C79.0314 27.4744 79.4931 27.5916 79.8837 27.826C80.2743 28.0604 80.5762 28.3894 80.7892 28.8132C81.0047 29.237 81.1124 29.7306 81.1124 30.294C81.1124 30.8575 81.0047 31.3499 80.7892 31.7713C80.5762 32.1927 80.2743 32.5206 79.8837 32.755C79.4931 32.9893 79.0314 33.1065 78.4988 33.1065ZM78.5059 32.0767C78.7947 32.0767 79.0362 31.9974 79.2303 31.8388C79.4244 31.6778 79.5688 31.4624 79.6635 31.1925C79.7606 30.9226 79.8091 30.6219 79.8091 30.2905C79.8091 29.9567 79.7606 29.6548 79.6635 29.3849C79.5688 29.1127 79.4244 28.8961 79.2303 28.7351C79.0362 28.5741 78.7947 28.4936 78.5059 28.4936C78.2099 28.4936 77.9637 28.5741 77.7672 28.7351C77.5731 28.8961 77.4275 29.1127 77.3304 29.3849C77.2357 29.6548 77.1884 29.9567 77.1884 30.2905C77.1884 30.6219 77.2357 30.9226 77.3304 31.1925C77.4275 31.4624 77.5731 31.6778 77.7672 31.8388C77.9637 31.9974 78.2099 32.0767 78.5059 32.0767ZM83.489 25.7273L83.489 33L82.2035 33L82.2035 25.7273L83.489 25.7273ZM86.0964 25.7273L86.0964 33L84.8109 33L84.8109 25.7273L86.0964 25.7273ZM89.7976 33.1065C89.2649 33.1065 88.8033 32.9893 88.4126 32.755C88.022 32.5206 87.719 32.1927 87.5036 31.7713C87.2905 31.3499 87.1839 30.8575 87.1839 30.294C87.1839 29.7306 87.2905 29.237 87.5036 28.8132C87.719 28.3894 88.022 28.0604 88.4126 27.826C88.8033 27.5916 89.2649 27.4744 89.7976 27.4744C90.3303 27.4744 90.7919 27.5916 91.1825 27.826C91.5732 28.0604 91.875 28.3894 92.0881 28.8132C92.3035 29.237 92.4112 29.7306 92.4112 30.294C92.4112 30.8575 92.3035 31.3499 92.0881 31.7713C91.875 32.1927 91.5732 32.5206 91.1825 32.755C90.7919 32.9893 90.3303 33.1065 89.7976 33.1065ZM89.8047 32.0767C90.0935 32.0767 90.335 31.9974 90.5291 31.8388C90.7232 31.6778 90.8677 31.4624 90.9624 31.1925C91.0594 30.9226 91.108 30.6219 91.108 30.2905C91.108 29.9567 91.0594 29.6548 90.9624 29.3849C90.8677 29.1127 90.7232 28.8961 90.5291 28.7351C90.335 28.5741 90.0935 28.4936 89.8047 28.4936C89.5088 28.4936 89.2625 28.5741 89.0661 28.7351C88.8719 28.8961 88.7263 29.1127 88.6293 29.3849C88.5346 29.6548 88.4872 29.9567 88.4872 30.2905C88.4872 30.6219 88.5346 30.9226 88.6293 31.1925C88.7263 31.4624 88.8719 31.6778 89.0661 31.8388C89.2625 31.9974 89.5088 32.0767 89.8047 32.0767ZM94.4718 33L92.9306 27.5455L94.2409 27.5455L95.1998 31.3807L95.2495 31.3807L96.2296 27.5455L97.5257 27.5455L98.5059 31.3594L98.5591 31.3594L99.5037 27.5455L100.818 27.5455L99.2729 33L97.9341 33L96.9114 29.3139L96.8368 29.3139L95.8141 33L94.4718 33Z" fill="white"/>
</g>
<defs>
<linearGradient id="paint0_linear_100_4" x1="1076.19" y1="24.9032" x2="1068.38" y2="1898.65" gradientUnits="userSpaceOnUse">
<stop stop-color="#2AABEE"/>
<stop offset="1" stop-color="#229ED9"/>
</linearGradient>
<clipPath id="clip0_100_4">
<rect width="16" height="16" fill="white" transform="translate(248.236 22)"/>
</clipPath>
<clipPath id="clip1_100_4">
<rect width="18.7376" height="18.7376" fill="white" transform="translate(139.317 21) rotate(0.238706)"/>
</clipPath>
<clipPath id="clip2_100_4">
<rect x="34.2475" y="15" width="81.92" height="27.76" rx="5" transform="rotate(0.0217284 34.2475 15)" fill="white"/>
</clipPath>
<clipPath id="clip3_100_4">
<rect width="20.1249" height="23" fill="white" transform="translate(42 17)"/>
</clipPath>
</defs>
</svg>
