<svg width="83" height="28" viewBox="0 0 83 28" fill="none" xmlns="http://www.w3.org/2000/svg">
<g clip-path="url(#clip0_59_43)">
<rect x="0.247498" width="81.92" height="27.76" rx="5" transform="rotate(0.0217284 0.247498 0)" fill="#303030"/>
<g clip-path="url(#clip1_59_43)">
<path d="M28.1249 6.3125C28.1249 4.72676 26.8357 3.4375 25.2499 3.4375L10.875 3.4375C9.28925 3.4375 8 4.72676 8 6.3125L8 20.6875C8 22.2732 9.28925 23.5625 10.875 23.5625L25.2499 23.5625C26.8357 23.5625 28.1249 22.2732 28.1249 20.6875L28.1249 6.3125ZM19.9402 20.3146C19.9402 20.2338 19.9402 20.0451 19.9447 19.7936C19.9492 19.2814 19.9492 18.4998 19.9492 17.8305C19.9492 17.1297 19.7156 16.685 19.4415 16.4514C21.1036 16.2672 22.8556 16.0381 22.8556 13.1676C22.8556 12.35 22.5636 11.9412 22.0874 11.4156C22.1638 11.2225 22.4199 10.4273 22.0111 9.39414C21.3867 9.20098 19.9581 10.1982 19.9581 10.1982C19.3652 10.032 18.7228 9.94668 18.0894 9.94668C17.456 9.94668 16.8136 10.032 16.2207 10.1982C16.2207 10.1982 14.7922 9.20098 14.1677 9.39414C13.759 10.4229 14.0105 11.218 14.0914 11.4156C13.6152 11.9412 13.3906 12.35 13.3906 13.1676C13.3906 16.0246 15.0662 16.2672 16.7283 16.4514C16.5127 16.6445 16.3195 16.977 16.2521 17.4531C15.8254 17.6463 14.7338 17.9787 14.0824 16.8287C13.6736 16.1189 12.9369 16.0605 12.9369 16.0605C12.2092 16.0516 12.8875 16.5188 12.8875 16.5188C13.3726 16.7434 13.714 17.6059 13.714 17.6059C14.1498 18.94 16.2341 18.4908 16.2341 18.4908C16.2341 18.8951 16.2386 19.4656 16.2386 19.8654C16.2386 20.0811 16.2431 20.2518 16.2431 20.3146C16.2431 20.5078 16.1084 20.7414 15.7265 20.674C12.7617 19.6812 10.6863 16.8602 10.6863 13.5629C10.6863 9.43906 13.8398 6.30801 17.9636 6.30801C22.0874 6.30801 25.4296 9.43906 25.4296 13.5629C25.4341 16.8602 23.4216 19.6857 20.4568 20.674C20.0794 20.7414 19.9402 20.5078 19.9402 20.3146ZM15.8748 17.8529C15.8658 17.7855 15.9242 17.7271 16.0095 17.7092C16.0949 17.7002 16.1757 17.7361 16.1847 17.7945C16.1982 17.8529 16.1398 17.9113 16.05 17.9293C15.9646 17.9473 15.8838 17.9113 15.8748 17.8529ZM15.466 17.9967C15.3672 18.0057 15.2998 17.9563 15.2998 17.8889C15.2998 17.8305 15.3672 17.7811 15.457 17.7811C15.5423 17.7721 15.6232 17.8215 15.6232 17.8889C15.6232 17.9473 15.5558 17.9967 15.466 17.9967ZM14.8236 17.8979C14.7382 17.8799 14.6799 17.8125 14.6978 17.7541C14.7158 17.6957 14.8056 17.6688 14.882 17.6867C14.9718 17.7137 15.0302 17.7811 15.0078 17.8395C14.9898 17.8979 14.9 17.9248 14.8236 17.8979ZM14.2621 17.5699C14.1947 17.5115 14.1767 17.4262 14.2217 17.3857C14.2621 17.3363 14.3474 17.3453 14.4148 17.4127C14.4732 17.4711 14.4957 17.5609 14.4552 17.5969C14.4148 17.6463 14.3295 17.6373 14.2621 17.5699ZM13.8802 17.1207C13.8308 17.0533 13.8308 16.977 13.8802 16.9455C13.9297 16.9051 14.006 16.9365 14.0465 17.0039C14.0959 17.0713 14.0959 17.1521 14.0465 17.1881C14.006 17.215 13.9297 17.1881 13.8802 17.1207ZM13.5972 16.7254C13.5478 16.667 13.5388 16.5996 13.5793 16.5682C13.6197 16.5277 13.6871 16.5502 13.7365 16.5951C13.7859 16.6535 13.7949 16.7209 13.7545 16.7523C13.714 16.7928 13.6467 16.7703 13.5972 16.7254ZM13.3277 16.4379C13.2693 16.4109 13.2424 16.3615 13.2603 16.3211C13.2783 16.2941 13.3277 16.2807 13.3861 16.3031C13.4445 16.3346 13.4715 16.384 13.4535 16.4199C13.4355 16.4604 13.3771 16.4693 13.3277 16.4379Z" fill="white"/>
</g>
<path d="M36.7173 18L36.7173 10.7273L41.3764 10.7273L41.3764 11.8317L38.0348 11.8317L38.0348 13.8061L41.0568 13.8061L41.0568 14.9105L38.0348 14.9105L38.0348 18L36.7173 18ZM44.4988 18.1065C43.9661 18.1065 43.5044 17.9893 43.1138 17.755C42.7232 17.5206 42.4202 17.1927 42.2047 16.7713C41.9917 16.3499 41.8851 15.8575 41.8851 15.294C41.8851 14.7306 41.9917 14.237 42.2047 13.8132C42.4202 13.3894 42.7232 13.0604 43.1138 12.826C43.5044 12.5916 43.9661 12.4744 44.4988 12.4744C45.0314 12.4744 45.4931 12.5916 45.8837 12.826C46.2743 13.0604 46.5762 13.3894 46.7892 13.8132C47.0047 14.237 47.1124 14.7306 47.1124 15.294C47.1124 15.8575 47.0047 16.3499 46.7892 16.7713C46.5762 17.1927 46.2743 17.5206 45.8837 17.755C45.4931 17.9893 45.0314 18.1065 44.4988 18.1065ZM44.5059 17.0767C44.7947 17.0767 45.0362 16.9974 45.2303 16.8388C45.4244 16.6778 45.5688 16.4624 45.6635 16.1925C45.7606 15.9226 45.8091 15.6219 45.8091 15.2905C45.8091 14.9567 45.7606 14.6548 45.6635 14.3849C45.5688 14.1127 45.4244 13.8961 45.2303 13.7351C45.0362 13.5741 44.7947 13.4936 44.5059 13.4936C44.2099 13.4936 43.9637 13.5741 43.7672 13.7351C43.5731 13.8961 43.4275 14.1127 43.3304 14.3849C43.2357 14.6548 43.1884 14.9567 43.1884 15.2905C43.1884 15.6219 43.2357 15.9226 43.3304 16.1925C43.4275 16.4624 43.5731 16.6778 43.7672 16.8388C43.9637 16.9974 44.2099 17.0767 44.5059 17.0767ZM49.489 10.7273L49.489 18L48.2035 18L48.2035 10.7273L49.489 10.7273ZM52.0964 10.7273L52.0964 18L50.8109 18L50.8109 10.7273L52.0964 10.7273ZM55.7976 18.1065C55.2649 18.1065 54.8033 17.9893 54.4126 17.755C54.022 17.5206 53.719 17.1927 53.5036 16.7713C53.2905 16.3499 53.1839 15.8575 53.1839 15.294C53.1839 14.7306 53.2905 14.237 53.5036 13.8132C53.719 13.3894 54.022 13.0604 54.4126 12.826C54.8033 12.5916 55.2649 12.4744 55.7976 12.4744C56.3303 12.4744 56.7919 12.5916 57.1825 12.826C57.5732 13.0604 57.875 13.3894 58.0881 13.8132C58.3035 14.237 58.4112 14.7306 58.4112 15.294C58.4112 15.8575 58.3035 16.3499 58.0881 16.7713C57.875 17.1927 57.5732 17.5206 57.1825 17.755C56.7919 17.9893 56.3303 18.1065 55.7976 18.1065ZM55.8047 17.0767C56.0935 17.0767 56.335 16.9974 56.5291 16.8388C56.7232 16.6778 56.8677 16.4624 56.9624 16.1925C57.0594 15.9226 57.108 15.6219 57.108 15.2905C57.108 14.9567 57.0594 14.6548 56.9624 14.3849C56.8677 14.1127 56.7232 13.8961 56.5291 13.7351C56.335 13.5741 56.0935 13.4936 55.8047 13.4936C55.5088 13.4936 55.2625 13.5741 55.0661 13.7351C54.8719 13.8961 54.7263 14.1127 54.6293 14.3849C54.5346 14.6548 54.4872 14.9567 54.4872 15.2905C54.4872 15.6219 54.5346 15.9226 54.6293 16.1925C54.7263 16.4624 54.8719 16.6778 55.0661 16.8388C55.2625 16.9974 55.5088 17.0767 55.8047 17.0767ZM60.4718 18L58.9306 12.5455L60.2409 12.5455L61.1998 16.3807L61.2495 16.3807L62.2296 12.5455L63.5257 12.5455L64.5059 16.3594L64.5591 16.3594L65.5037 12.5455L66.8176 12.5455L65.2729 18L63.9341 18L62.9114 14.3139L62.8368 14.3139L61.8141 18L60.4718 18Z" fill="white"/>
</g>
<defs>
<clipPath id="clip0_59_43">
<rect x="0.247498" width="81.92" height="27.76" rx="5" transform="rotate(0.0217284 0.247498 0)" fill="white"/>
</clipPath>
<clipPath id="clip1_59_43">
<rect width="20.1249" height="23" fill="white" transform="translate(8 2)"/>
</clipPath>
</defs>
</svg>
