<svg width="82" height="28" viewBox="0 0 82 28" fill="none" xmlns="http://www.w3.org/2000/svg">
<rect x="0.235657" y="0.143829" width="81.4915" height="27.7584" rx="5" transform="rotate(-0.101118 0.235657 0.143829)" fill="#0A66C2"/>
<g clip-path="url(#clip0_59_40)">
<path d="M26.8683 19.6329L24.4976 19.6329L24.4976 15.9202C24.4976 15.0349 24.4818 13.8952 23.2646 13.8952C22.0298 13.8952 21.8409 14.8599 21.8409 15.8558L21.8409 19.6327L19.4703 19.6327L19.4703 11.9979L21.7461 11.9979L21.7461 13.0413L21.778 13.0413C22.0057 12.6519 22.3349 12.3315 22.7303 12.1143C23.1257 11.8972 23.5726 11.7913 24.0235 11.808C26.4263 11.808 26.8693 13.3885 26.8693 15.4446L26.8683 19.6329ZM16.7953 10.9544C16.0355 10.9545 15.4194 10.3386 15.4193 9.57881C15.4192 8.81899 16.035 8.20293 16.7948 8.20281C17.5546 8.20262 18.1707 8.81849 18.1708 9.57831C18.1709 9.94318 18.026 10.2931 17.768 10.5512C17.5101 10.8093 17.1602 10.9543 16.7953 10.9544ZM17.9807 19.633L15.6075 19.633L15.6075 11.9979L17.9806 11.9979L17.9807 19.633ZM28.0502 6.00112L14.4162 6.00112C13.7718 5.99387 13.2434 6.51006 13.2355 7.15443L13.2355 20.8452C13.2432 21.4899 13.7715 22.0066 14.4162 21.9999L28.0502 21.9999C28.6962 22.0079 29.2266 21.4912 29.2355 20.8452L29.2355 7.15337C29.2263 6.50774 28.6958 5.99162 28.0502 6.00006" fill="#CBD5E1"/>
</g>
<defs>
<clipPath id="clip0_59_40">
<rect width="16" height="16" fill="white" transform="translate(13.2356 6)"/>
</clipPath>
</defs>
</svg>
