<svg width="537" height="40" viewBox="0 0 537 40" fill="none" xmlns="http://www.w3.org/2000/svg">
<g clip-path="url(#clip0_100_2)">
<path d="M5.13502 31.431L2.5556 2.50061L30.8985 2.50061L28.3162 31.4267L16.7098 34.6442L5.13502 31.431Z" fill="#E44D26"/>
<path d="M16.7271 32.1849L26.1058 29.5846L28.3124 4.86604L16.7271 4.86604L16.7271 32.1849Z" fill="#F16529"/>
<path d="M16.7271 15.5959L12.0318 15.5959L11.7075 11.9623L16.7271 11.9623L16.7271 8.41432L7.82971 8.41432L7.91479 9.36617L8.78671 19.1442L16.7271 19.1442L16.7271 15.5959ZM16.7271 24.8109L16.7114 24.8153L12.7599 23.748L12.5075 20.9185L8.94527 20.9185L9.44233 26.4896L16.7108 28.5072L16.7271 28.5028L16.7271 24.8109Z" fill="#EBEBEB"/>
<path d="M16.7147 15.5959L16.7147 19.1442L21.0838 19.1442L20.6721 23.7459L16.7147 24.814L16.7147 28.5056L23.9888 26.4896L24.0422 25.8901L24.876 16.5488L24.9623 15.5959L24.0064 15.5959L16.7147 15.5959ZM16.7147 8.41432L16.7147 11.9623L25.2854 11.9623L25.3565 11.1652L25.5184 9.36617L25.6033 8.41432L16.7147 8.41432Z" fill="white"/>
</g>
<g clip-path="url(#clip1_100_2)">
<path d="M77.5084 32.3055L74.9222 3.297L103.341 3.297L100.753 32.3011L89.1145 35.5276L77.5084 32.3055Z" fill="#1572B6"/>
<path d="M89.132 33.0615L98.5362 30.4542L100.749 5.66869L89.132 5.66869L89.132 33.0615Z" fill="#33A9DC"/>
<path d="M89.132 16.1785L93.8399 16.1785L94.1651 12.5353L89.132 12.5353L89.132 8.97749L98.0534 8.97749L97.968 9.93209L97.0934 19.7363L89.132 19.7363L89.132 16.1785Z" fill="white"/>
<path d="M89.1531 25.4183L89.1374 25.4229L85.1752 24.3531L84.9219 21.5156L81.351 21.5156L81.8492 27.1019L89.1369 29.1245L89.1531 29.1199L89.1531 25.4183Z" fill="#EBEBEB"/>
<path d="M93.5374 19.5858L93.1088 24.3503L89.1407 25.4214L89.1407 29.123L96.4343 27.1016L96.4879 26.5005L97.1068 19.5858L93.5374 19.5858Z" fill="white"/>
<path d="M89.1441 8.97749L89.1441 12.5353L80.5504 12.5353L80.4792 11.7358L80.3171 9.93209L80.232 8.97749L89.1441 8.97749ZM89.132 16.179L89.132 19.7368L85.2198 19.7368L85.1485 18.9373L84.9862 17.1336L84.9013 16.179L89.132 16.179Z" fill="#EBEBEB"/>
</g>
<g clip-path="url(#clip2_100_2)">
<path d="M160.728 7.6729C156.328 7.6729 153.579 9.87204 152.478 14.2721C154.128 12.0727 156.053 11.248 158.253 11.7979C159.508 12.1109 160.406 13.0215 161.4 14.0306C163.017 15.672 164.889 17.5724 168.978 17.5724C173.378 17.5724 176.127 15.373 177.228 10.9719C175.578 13.1724 173.653 13.9976 171.453 13.4474C170.198 13.1341 169.301 12.2238 168.306 11.2147C166.69 9.57323 164.818 7.6729 160.728 7.6729ZM152.478 17.5724C148.078 17.5724 145.329 19.7718 144.228 24.1729C145.878 21.9724 147.803 21.1472 150.003 21.6974C151.258 22.0106 152.156 22.921 153.15 23.93C154.767 25.5715 156.639 27.4719 160.728 27.4719C165.128 27.4719 167.877 25.2727 168.978 20.8726C167.328 23.0721 165.403 23.8969 163.203 23.3469C161.948 23.0339 161.051 22.1233 160.056 21.1142C158.44 19.4727 156.568 17.5724 152.478 17.5724Z" fill="#38BDF8"/>
</g>
<path d="M370.289 6.13489L399.164 6.13489L399.164 35.0099L370.289 35.0099L370.289 6.13489Z" fill="#F5DE19"/>
<path d="M389.686 28.6935C389.933 29.1929 390.315 29.6127 390.789 29.9046C391.264 30.1964 391.811 30.3486 392.368 30.3435C393.492 30.3435 394.21 29.7815 394.21 29.0029C394.21 28.0747 393.472 27.7427 392.234 27.2013L391.556 26.9105C389.597 26.0762 388.297 25.0315 388.297 22.8226C388.297 20.7879 389.844 19.238 392.271 19.238C393.056 19.1814 393.841 19.3572 394.527 19.7436C395.213 20.13 395.771 20.7098 396.13 21.4108L394.008 22.7669C393.87 22.4194 393.629 22.122 393.318 21.9143C393.007 21.7066 392.64 21.5982 392.266 21.6036C392.103 21.5873 391.938 21.6051 391.783 21.656C391.627 21.7069 391.483 21.7897 391.361 21.8991C391.239 22.0086 391.141 22.1422 391.073 22.2916C391.005 22.441 390.97 22.6029 390.968 22.7669C390.968 23.5806 391.472 23.9106 392.637 24.4169L393.315 24.7077C395.621 25.6967 396.925 26.7042 396.925 28.9699C396.925 31.4129 395.005 32.7515 392.428 32.7515C391.424 32.8148 390.423 32.5865 389.546 32.0942C388.669 31.6018 387.953 30.8664 387.484 29.9764L389.686 28.6935ZM380.101 28.9286C380.527 29.6845 380.914 30.3239 381.847 30.3239C382.738 30.3239 383.301 29.9753 383.301 28.6192L383.301 19.3926L386.014 19.3926L386.014 28.6553C386.014 31.4645 384.364 32.7432 381.962 32.7432C381.113 32.7896 380.27 32.578 379.544 32.1363C378.817 31.6946 378.241 31.0433 377.892 30.2682L380.101 28.9286Z" fill="black"/>
<g clip-path="url(#clip3_100_2)">
<path d="M328.393 9.10489L313.584 35.5869C313.278 36.1337 312.492 36.1368 312.182 35.5931L297.079 9.10799C296.741 8.5145 297.247 7.79649 297.92 7.91638L312.745 10.5659C312.84 10.5831 312.937 10.5831 313.031 10.5659L327.546 7.9205C328.216 7.79856 328.726 8.51064 328.393 9.10489Z" fill="url(#paint0_linear_100_2)"/>
<path d="M319.807 4.44106L308.848 6.58812C308.76 6.60521 308.681 6.65087 308.622 6.71793C308.564 6.78499 308.529 6.86964 308.524 6.9586L307.849 18.3457C307.845 18.4081 307.856 18.4705 307.881 18.528C307.906 18.5855 307.943 18.6364 307.991 18.6768C308.039 18.7172 308.095 18.7459 308.156 18.7606C308.217 18.7754 308.28 18.7758 308.341 18.7618L311.393 18.0567C311.459 18.0416 311.527 18.0432 311.592 18.0614C311.657 18.0797 311.716 18.1139 311.764 18.161C311.813 18.2081 311.848 18.2666 311.868 18.3311C311.888 18.3955 311.891 18.4639 311.877 18.53L310.971 22.9693C310.957 23.0376 310.961 23.1084 310.983 23.1746C311.004 23.2409 311.043 23.3004 311.095 23.3473C311.146 23.3942 311.209 23.4269 311.277 23.4422C311.345 23.4575 311.416 23.4549 311.483 23.4346L313.367 22.8615C313.659 22.7728 313.94 23.0296 313.878 23.3287L312.437 30.3017C312.347 30.7379 312.928 30.9756 313.169 30.6018L313.331 30.3522L322.261 12.5297C322.411 12.2306 322.153 11.8903 321.825 11.9537L318.684 12.5601C318.616 12.5732 318.547 12.5688 318.481 12.5471C318.416 12.5255 318.357 12.4874 318.311 12.4365C318.264 12.3857 318.232 12.3237 318.216 12.2566C318.201 12.1896 318.202 12.1196 318.222 12.0535L320.271 4.94766C320.291 4.88131 320.292 4.81112 320.277 4.74384C320.261 4.67657 320.228 4.61449 320.181 4.56358C320.135 4.51267 320.076 4.47466 320.01 4.4532C319.944 4.43174 319.874 4.42756 319.807 4.44106Z" fill="url(#paint1_linear_100_2)"/>
</g>
<g clip-path="url(#clip4_100_2)">
<path d="M224.828 1.07239C222.465 1.07239 220.717 3.14055 220.795 5.38342C220.87 7.53813 220.772 10.3291 220.07 12.6049C219.365 14.8874 218.173 16.3333 216.227 16.519L216.227 18.6148C218.173 18.8005 219.365 20.2464 220.07 22.529C220.772 24.8049 220.87 27.5955 220.795 29.7504C220.717 31.9929 222.465 34.0614 224.828 34.0614L249.038 34.0614C251.401 34.0614 253.148 31.9932 253.07 29.7504C252.995 27.5957 253.093 24.8049 253.795 22.529C254.5 20.2465 255.689 18.8003 257.635 18.6148L257.635 16.519C255.689 16.3333 254.5 14.8874 253.795 12.6049C253.093 10.3294 252.995 7.53829 253.07 5.38342C253.148 3.14087 251.401 1.07239 249.038 1.07239L224.827 1.07239L224.828 1.07239ZM244.3 21.3792C244.3 24.4676 241.997 26.3405 238.175 26.3405L231.667 26.3405C231.481 26.3404 231.303 26.2665 231.171 26.1348C231.04 26.0032 230.966 25.8247 230.966 25.6386L230.966 9.49516C230.966 9.30899 231.04 9.13044 231.171 8.99878C231.303 8.86712 231.481 8.79314 231.668 8.7931L238.137 8.7931C241.325 8.7931 243.416 10.5199 243.416 13.1709C243.416 15.0317 242.009 16.6976 240.217 16.9892L240.217 17.0865C242.657 17.3542 244.3 19.0445 244.3 21.3792ZM237.465 11.0182L233.755 11.0182L233.755 16.2593L236.88 16.2593C239.295 16.2593 240.628 15.2865 240.628 13.5475C240.628 11.9181 239.482 11.0182 237.465 11.0182ZM233.755 18.339L233.755 24.1148L237.602 24.1148C240.117 24.1148 241.449 23.1056 241.449 21.2087C241.449 19.3115 240.08 18.3387 237.44 18.3387L233.755 18.3387L233.755 18.339Z" fill="#7E13F8"/>
</g>
<path d="M456.727 25.1237C458.151 25.1237 459.305 23.9694 459.305 22.5456C459.305 21.1217 458.151 19.9675 456.727 19.9675C455.303 19.9675 454.149 21.1217 454.149 22.5456C454.149 23.9694 455.303 25.1237 456.727 25.1237Z" fill="#00D8FF"/>
<path d="M456.727 28.4567C453.628 28.5314 450.537 28.1137 447.569 27.2192C446.199 26.7846 444.92 26.1 443.798 25.2C443.37 24.8927 443.013 24.4963 442.753 24.0381C442.493 23.5799 442.334 23.0707 442.289 22.5456C442.289 20.8409 444.162 19.1703 447.299 18.0772C450.347 17.1094 453.53 16.6399 456.727 16.687C459.881 16.6434 463.022 17.1044 466.031 18.0524C467.351 18.4738 468.586 19.1253 469.679 19.9767C470.1 20.2703 470.45 20.6525 470.707 21.0963C470.964 21.5402 471.12 22.0349 471.164 22.5456C471.164 24.3173 469.071 26.1127 465.699 27.2285C462.789 28.0941 459.763 28.5083 456.727 28.4567ZM456.727 17.9204C453.668 17.8804 450.623 18.3267 447.705 19.2425C444.817 20.25 443.523 21.6278 443.523 22.5425C443.523 23.4995 444.914 25.0041 447.969 26.0487C450.808 26.9006 453.764 27.297 456.727 27.2233C459.631 27.2753 462.527 26.8823 465.312 26.058C468.483 25.0072 469.927 23.5005 469.927 22.5456C469.875 22.2179 469.755 21.9046 469.576 21.6255C469.397 21.3463 469.162 21.1072 468.885 20.9234C467.907 20.1678 466.804 19.5904 465.626 19.2177C462.747 18.3148 459.743 17.8768 456.727 17.9204Z" fill="#00D8FF"/>
<path d="M450.869 35.4042C450.388 35.4152 449.913 35.2985 449.492 35.066C448.015 34.2142 447.503 31.7577 448.123 28.4938C448.807 25.3705 449.991 22.3781 451.629 19.6323C453.167 16.8782 455.135 14.3876 457.459 12.2547C458.484 11.3216 459.665 10.5769 460.949 10.0551C461.413 9.83804 461.92 9.72556 462.433 9.72556C462.946 9.72556 463.452 9.83804 463.917 10.0551C465.452 10.9399 465.961 13.65 465.244 17.1284C464.54 20.0825 463.386 22.9111 461.824 25.5156C460.341 28.2373 458.435 30.7062 456.177 32.8302C455.116 33.8004 453.884 34.5658 452.544 35.0876C452.008 35.2872 451.442 35.3943 450.869 35.4042ZM452.698 20.2449C451.135 22.8743 450.001 25.7352 449.336 28.7207C448.766 31.7268 449.313 33.5346 450.109 33.9945C450.934 34.472 452.937 34.0193 455.369 31.8949C457.524 29.8603 459.344 27.4969 460.759 24.8927C462.255 22.4028 463.362 19.6984 464.04 16.8737C464.714 13.5995 464.131 11.5947 463.304 11.1183C462.994 10.9997 462.663 10.9466 462.331 10.9624C462 10.9782 461.675 11.0625 461.378 11.2101C460.235 11.6818 459.184 12.3514 458.274 13.188C456.054 15.2311 454.174 17.6155 452.705 20.251L452.698 20.2449Z" fill="#00D8FF"/>
<path d="M462.581 35.4176C461.184 35.4176 459.409 34.572 457.561 32.9828C455.197 30.8304 453.196 28.3102 451.635 25.5197C450.017 22.8118 448.842 19.8627 448.155 16.784C447.858 15.4293 447.803 14.0328 447.992 12.659C448.037 12.1495 448.192 11.6559 448.448 11.2129C448.703 10.7698 449.052 10.388 449.471 10.0943C451.005 9.20635 453.606 10.119 456.262 12.4764C458.469 14.5618 460.344 16.9734 461.82 19.6271C463.437 22.2717 464.624 25.1563 465.337 28.1731C465.647 29.5774 465.695 31.027 465.478 32.4487C465.427 32.973 465.262 33.48 464.996 33.9348C464.73 34.3896 464.369 34.7815 463.937 35.0835C463.523 35.3127 463.055 35.428 462.581 35.4176ZM452.702 24.8989C454.2 27.5656 456.111 29.9775 458.366 32.0444C460.685 34.0399 462.525 34.4689 463.316 34.0038C464.141 33.5243 464.749 31.5669 464.122 28.4C463.435 25.5196 462.297 22.7661 460.749 20.2418C459.34 17.7019 457.551 15.3927 455.443 13.3943C452.943 11.175 450.916 10.679 450.09 11.1575C449.832 11.3668 449.621 11.6272 449.47 11.9222C449.318 12.2171 449.229 12.5403 449.208 12.8714C449.044 14.0966 449.098 15.3411 449.366 16.5478C450.027 19.492 451.153 22.3118 452.703 24.9009L452.702 24.8989Z" fill="#00D8FF"/>
<g clip-path="url(#clip5_100_2)">
<path d="M522.646 6.17552C522.415 6.17552 522.183 6.22682 521.977 6.30391C522.415 6.58699 522.646 6.97268 522.775 7.40993C522.775 7.46149 522.801 7.51305 522.801 7.56436C522.801 7.61592 522.826 7.66722 522.826 7.71853C522.852 8.46464 522.62 8.5675 522.466 9.00475C522.209 9.5704 522.286 10.1879 522.595 10.6764C522.621 10.728 522.646 10.8053 522.698 10.8566C522.363 8.69615 524.164 8.38729 524.498 7.71853C524.524 7.12711 524.035 6.74142 523.649 6.45834C523.264 6.22682 522.955 6.17526 522.646 6.17526L522.646 6.17552ZM525.347 6.63804C525.321 6.84377 525.347 6.79247 525.321 6.89533C525.321 6.97242 525.321 7.0495 525.296 7.12685C525.27 7.20393 525.27 7.2555 525.244 7.33258C525.218 7.40967 525.193 7.46123 525.167 7.53832C525.141 7.58988 525.115 7.64118 525.09 7.71827C525.064 7.74405 525.038 7.79561 525.013 7.8214C524.987 7.84718 524.987 7.8727 524.961 7.89848C524.91 7.95004 524.884 8.02687 524.833 8.07843L524.678 8.23286C524.627 8.28443 524.575 8.33573 524.524 8.36125C524.344 8.49016 524.138 8.59277 523.958 8.72142C523.907 8.77298 523.83 8.79876 523.778 8.85007C523.727 8.90163 523.675 8.92741 523.624 8.97872L523.47 9.13289C523.418 9.18445 523.366 9.23601 523.341 9.3131C523.289 9.36466 523.264 9.44175 523.212 9.49305C523.187 9.5704 523.161 9.6217 523.109 9.69879C523.084 9.77613 523.058 9.82769 523.032 9.90452C523.006 9.98186 522.981 10.0589 522.981 10.1103C522.981 10.136 522.981 10.1876 522.955 10.2134C522.955 10.2392 522.955 10.2905 522.929 10.3162L522.929 10.6762C522.929 10.7535 522.929 10.8051 522.955 10.8819C522.955 10.9592 522.981 11.0108 523.007 11.0879C523.032 11.165 523.058 11.2163 523.084 11.2936C523.109 11.3452 523.135 11.3707 523.135 11.4223L521.18 10.6762C520.858 10.5785 520.532 10.4927 520.203 10.4191C520.023 10.3676 519.843 10.3418 519.663 10.2902C519.152 10.188 518.637 10.1109 518.119 10.0589L518.068 10.0589C517.554 10.0074 517.065 9.98161 516.551 9.98161C516.165 9.98161 515.805 10.0074 515.445 10.0332C514.93 10.0589 514.416 10.1363 513.901 10.2134L513.515 10.2905C513.258 10.342 513.001 10.3933 512.744 10.4704C512.615 10.4962 512.487 10.5478 512.358 10.5735C512.229 10.6248 512.101 10.6762 511.998 10.7277C511.895 10.7793 511.818 10.8051 511.715 10.8564C511.689 10.8564 511.689 10.8564 511.664 10.8821C511.586 10.9334 511.509 10.9592 511.432 11.0105C511.406 11.0105 511.381 11.0363 511.381 11.0363C511.278 11.0879 511.201 11.1394 511.123 11.165C511.072 11.1907 510.995 11.2165 510.944 11.2423C510.918 11.2678 510.892 11.2678 510.866 11.2936C510.789 11.3452 510.712 11.3707 510.635 11.422C510.558 11.4736 510.48 11.4993 510.429 11.5509C510.377 11.6022 510.3 11.628 510.249 11.6793C510.249 11.6793 510.223 11.6793 510.223 11.7051C510.172 11.7309 510.12 11.7824 510.069 11.8337L510.043 11.8595C509.992 11.8853 509.966 11.9366 509.915 11.9624C509.889 11.9624 509.889 11.9882 509.863 11.9882C509.812 12.0139 509.786 12.0652 509.735 12.0908C509.735 12.1166 509.709 12.1166 509.709 12.1166L509.554 12.271L509.529 12.2968L509.374 12.4509C509.374 12.4509 509.374 12.4767 509.349 12.4767L509.22 12.6054C509.194 12.6311 509.168 12.6311 509.168 12.6569L509.014 12.8111C509.014 12.8369 508.989 12.8369 508.989 12.8627L508.783 13.0681L508.757 13.0939C508.629 13.2483 508.474 13.377 508.32 13.5056C508.166 13.6343 508.011 13.7627 507.831 13.8913C507.651 14.02 507.497 14.1228 507.317 14.2257C507.137 14.3286 506.957 14.4057 506.777 14.483C506.597 14.5601 506.417 14.6372 506.237 14.6887C505.876 14.7661 505.516 14.9203 505.208 14.9458C505.208 14.8174 505.13 14.8429 505.053 14.8429C504.976 14.8687 504.899 14.8687 504.848 14.8945C504.77 14.9203 504.719 14.946 504.642 14.9718C504.569 14.9956 504.499 15.0302 504.436 15.0744C504.385 15.126 504.307 15.1518 504.256 15.2033C504.205 15.2546 504.127 15.306 504.076 15.3575C504.024 15.4091 503.947 15.4604 503.896 15.5117C503.844 15.5632 503.793 15.6148 503.742 15.6919C503.69 15.769 503.639 15.8203 503.613 15.8976C503.562 15.9492 503.536 16.0263 503.484 16.1034C503.459 16.1807 503.407 16.2575 503.381 16.3349L503.304 16.5664C503.279 16.6435 503.279 16.6948 503.253 16.7721L503.253 16.7979C503.227 16.8753 503.227 16.9779 503.227 17.0294C503.253 17.0036 503.253 17.0552 503.253 17.1065L503.253 17.2094C503.253 17.2609 503.279 17.3122 503.279 17.3636C503.304 17.4151 503.304 17.4667 503.33 17.518C503.356 17.5695 503.381 17.6208 503.433 17.6724C503.458 17.724 503.51 17.7753 503.536 17.8266C503.587 17.8781 503.638 17.9297 503.69 17.9552C503.742 18.0068 503.793 18.0584 503.844 18.0839C504.05 18.2638 504.101 18.3154 504.359 18.4696C504.41 18.4953 504.436 18.5211 504.487 18.5469L504.513 18.5469L504.513 18.5985C504.513 18.6753 504.539 18.7269 504.564 18.804C504.59 18.8813 504.616 18.9584 504.642 19.0097L504.719 19.1641C504.719 19.1899 504.744 19.1899 504.744 19.2157C504.77 19.2928 504.822 19.3441 504.848 19.3956C504.899 19.4472 504.925 19.5243 504.976 19.5756L505.13 19.73L505.285 19.8842L505.31 19.8842C505.362 19.9357 505.413 19.9615 505.465 20.0131C505.516 20.0647 505.593 20.0902 505.645 20.1157C505.696 20.1415 505.773 20.193 505.85 20.2188C505.902 20.2446 505.954 20.2701 506.03 20.2701C506.03 20.2701 506.056 20.2701 506.056 20.2959C506.082 20.2959 506.134 20.3217 506.159 20.3217C506.134 20.7845 506.134 21.2217 506.185 21.3761C506.262 21.5561 506.648 21.016 507.008 20.4246C506.956 21.016 506.931 21.7105 507.008 21.9163C507.111 22.122 507.599 21.4532 508.062 20.7329C514.081 19.3441 519.585 23.5108 520.177 29.4011C520.074 28.475 518.942 27.9607 518.402 28.0893C518.145 28.7065 517.708 29.5297 517.013 30.0183C517.065 29.4523 517.039 28.8865 516.936 28.3208C516.756 29.0925 516.396 29.8383 515.882 30.4555C515.084 30.5071 514.261 30.1211 513.85 29.5297C513.824 29.5039 513.798 29.4524 513.773 29.4266C513.747 29.3753 513.721 29.2982 513.695 29.2466C513.669 29.1951 513.644 29.118 513.644 29.0667L513.644 28.7581C513.644 28.7065 513.67 28.6292 513.695 28.5779C513.721 28.5266 513.721 28.4492 513.747 28.3979C513.773 28.3464 513.798 28.2693 513.85 28.218C514.004 27.8062 514.004 27.4719 513.721 27.2919L513.567 27.2146C513.541 27.2146 513.489 27.189 513.464 27.189C513.438 27.189 513.412 27.1633 513.387 27.1633C513.335 27.1375 513.258 27.1375 513.207 27.1117C513.155 27.0859 513.078 27.0859 513.027 27.0859C512.975 27.0859 512.898 27.0604 512.846 27.0604L512.718 27.0604C512.641 27.0604 512.589 27.0604 512.538 27.0862C512.486 27.0862 512.409 27.112 512.358 27.112C512.306 27.1377 512.229 27.1377 512.178 27.1635C512.126 27.189 512.075 27.2148 511.998 27.2403L511.843 27.3177C509.863 28.6037 511.046 31.6386 512.384 32.5131C511.869 32.6163 511.355 32.7189 511.2 32.822L511.175 32.8478C511.535 33.079 511.921 33.2592 512.332 33.4134C512.872 33.5936 513.464 33.7478 513.721 33.8251C514.415 33.9793 515.136 34.0309 515.856 33.9793C519.611 33.722 522.698 30.8415 523.263 27.0862C523.289 27.1635 523.289 27.2403 523.315 27.3177C523.341 27.4719 523.366 27.6263 523.392 27.8062C523.418 27.8836 523.418 27.9607 523.418 28.0378L523.418 28.0635C523.418 28.1409 523.444 28.218 523.444 28.2951C523.444 28.3979 523.469 28.475 523.469 28.5779L523.469 29.6581C523.469 29.7355 523.444 29.787 523.444 29.8641L523.444 29.9412C523.444 30.0185 523.418 30.0956 523.418 30.1985C523.392 30.2756 523.392 30.3527 523.366 30.43L523.366 30.4558C523.34 30.5329 523.34 30.61 523.315 30.687L523.315 30.7128C523.289 30.7902 523.289 30.8673 523.263 30.9443L523.263 30.9701L523.186 31.2016L523.186 31.2274C523.16 31.3045 523.135 31.4074 523.109 31.4845C523.083 31.5618 523.058 31.6389 523.006 31.7418C522.981 31.8188 522.955 31.9217 522.903 31.9988C522.878 32.0761 522.826 32.1532 522.8 32.2561C522.775 32.3334 522.723 32.4105 522.698 32.4876C522.698 32.5134 522.672 32.5392 522.672 32.5392C522.672 32.5392 522.672 32.565 522.646 32.565C522.106 33.6707 521.283 34.6481 520.254 35.4197C520.177 35.4713 520.126 35.5228 520.048 35.5741C520.023 35.5999 519.997 35.5999 519.997 35.6257C519.945 35.677 519.868 35.7028 519.817 35.7541L519.843 35.8057C519.971 35.7799 520.074 35.7799 520.203 35.7541C520.434 35.7283 520.64 35.6767 520.871 35.6254C520.923 35.6254 521 35.5997 521.052 35.5739C521.103 35.5739 521.129 35.5481 521.18 35.5481C521.231 35.5481 521.309 35.5226 521.36 35.5226C521.412 35.4968 521.463 35.4968 521.514 35.471C522.363 35.2655 523.186 34.9825 523.984 34.6481C522.62 36.4999 520.82 37.9919 518.711 38.969C519.688 38.8919 520.666 38.7378 521.617 38.4547C525.034 37.4512 527.918 35.1407 529.642 32.0246C529.282 33.9793 528.51 35.857 527.353 37.5031C528.176 36.963 528.922 36.3197 529.617 35.6254C531.52 33.6449 532.78 31.0985 533.192 28.3979C533.475 29.7355 533.578 31.1243 533.449 32.4876C539.596 23.9226 533.963 15.0489 531.597 12.7082C531.597 12.6824 531.571 12.6824 531.571 12.6567C531.571 12.7598 531.571 12.8624 531.546 12.9655C531.52 13.1713 531.494 13.3512 531.468 13.5312C531.417 13.7114 531.366 13.9171 531.314 14.0971C531.263 14.2773 531.185 14.4572 531.108 14.6372C531.031 14.8171 530.954 14.9973 530.851 15.1518C530.748 15.3062 530.645 15.4862 530.542 15.6403C530.44 15.7945 530.311 15.9489 530.182 16.1034C530.054 16.2578 529.925 16.3862 529.771 16.5406C529.693 16.618 529.617 16.695 529.514 16.7463C529.436 16.7979 529.385 16.8495 529.308 16.9263C529.154 17.0552 528.999 17.1578 528.819 17.2607C528.665 17.3638 528.485 17.4667 528.305 17.5438L527.765 17.7753C527.585 17.8524 527.405 17.9039 527.224 17.9552C527.044 18.0068 526.839 18.0584 526.658 18.0839C526.453 18.1097 526.273 18.1354 526.093 18.1612C525.964 18.1612 525.81 18.1867 525.681 18.1867C525.475 18.1867 525.295 18.161 525.115 18.161C524.909 18.1352 524.73 18.1094 524.55 18.0836C524.355 18.0598 524.164 18.0079 523.984 17.9295C524.164 17.9037 524.369 17.9037 524.55 17.8524C524.755 17.8266 524.935 17.775 525.115 17.7237C525.295 17.6722 525.501 17.6208 525.656 17.5438L526.196 17.3122C526.376 17.2349 526.53 17.1323 526.71 17.0294C526.864 16.9263 527.044 16.7979 527.199 16.695C527.353 16.5661 527.507 16.4377 527.636 16.3091C527.79 16.1805 527.919 16.0263 528.048 15.8976C528.176 15.7432 528.305 15.589 528.408 15.4346C528.434 15.4088 528.434 15.383 528.459 15.3573C528.536 15.2289 528.639 15.0744 528.716 14.946C528.812 14.7797 528.898 14.6079 528.973 14.4315C529.051 14.2515 529.128 14.0713 529.179 13.8913L529.334 13.3512C529.359 13.1455 529.411 12.9655 529.411 12.7853C529.437 12.5796 529.437 12.3996 529.437 12.2194C529.437 12.091 529.437 11.9366 529.411 11.808C529.385 11.6022 529.359 11.4223 529.334 11.2421C529.308 11.0363 529.256 10.8564 529.205 10.6762C529.153 10.4962 529.076 10.3162 529.025 10.136C528.948 9.95608 528.871 9.77613 528.793 9.6217C528.691 9.44175 528.613 9.28732 528.511 9.10736C528.407 8.95293 528.279 8.7985 528.176 8.64433C528.048 8.4899 527.919 8.36125 527.79 8.20708C527.713 8.12974 527.636 8.05265 527.559 8.00135C527.173 7.69275 526.787 7.43545 526.376 7.17815C526.324 7.15237 526.273 7.12659 526.196 7.10081C525.861 6.81825 525.604 6.7409 525.347 6.63804Z" fill="#DF234F"/>
</g>
<defs>
<linearGradient id="paint0_linear_100_2" x1="296.71" y1="6.9701" x2="315.142" y2="32.0022" gradientUnits="userSpaceOnUse">
<stop stop-color="#41D1FF"/>
<stop offset="1" stop-color="#BD34FE"/>
</linearGradient>
<linearGradient id="paint1_linear_100_2" x1="311.894" y1="5.02371" x2="315.229" y2="27.8964" gradientUnits="userSpaceOnUse">
<stop stop-color="#FFEA83"/>
<stop offset="0.083" stop-color="#FFDD35"/>
<stop offset="1" stop-color="#FFA800"/>
</linearGradient>
<clipPath id="clip0_100_2">
<rect width="33" height="33" fill="white" transform="translate(0.227051 2.07239)"/>
</clipPath>
<clipPath id="clip1_100_2">
<rect width="32.9259" height="32.9259" fill="white" transform="translate(72.6688 2.94922)"/>
</clipPath>
<clipPath id="clip2_100_2">
<rect width="33" height="33" fill="white" transform="translate(144.227 1.07239)"/>
</clipPath>
<clipPath id="clip3_100_2">
<rect width="33" height="33" fill="white" transform="translate(296.227 4.07239)"/>
</clipPath>
<clipPath id="clip4_100_2">
<rect width="41.4082" height="33" fill="white" transform="translate(216.227 1.07239)"/>
</clipPath>
<clipPath id="clip5_100_2">
<rect width="33" height="33" fill="white" transform="translate(503.227 6.07239)"/>
</clipPath>
</defs>
</svg>
