<svg width="82" height="28" viewBox="0 0 82 28" fill="none" xmlns="http://www.w3.org/2000/svg">
<rect x="0.24939" width="81.4915" height="27.7584" rx="5" transform="rotate(0.0217284 0.24939 0)" fill="#2AABEE"/>
<g clip-path="url(#clip0_69_95)">
<path d="M14.6856 5.03903C12.2015 5.02868 9.81272 6.00642 8.05023 7.75544C6.28595 9.50517 5.28875 11.8839 5.27789 14.3687C5.26755 16.8525 6.24572 19.2412 7.99503 21.0049C9.74289 22.7685 12.1234 23.7661 14.6076 23.7765C17.0918 23.7868 19.4805 22.8091 21.243 21.0601C23.0069 19.311 24.005 16.9305 24.0153 14.4468C24.0257 11.963 23.0475 9.5743 21.2982 7.81064C19.5503 6.04698 17.1698 5.04938 14.6856 5.03903Z" fill="url(#paint0_linear_69_95)"/>
<path d="M9.51911 14.2874C12.2556 13.109 14.0799 12.3321 14.992 11.9569C17.5993 10.8855 18.1403 10.6998 18.4931 10.6949C18.5707 10.694 18.7433 10.7139 18.8557 10.8055C18.949 10.8827 18.9749 10.9867 18.9878 11.0598C18.9992 11.1327 19.0146 11.2989 19.0009 11.4286C18.8542 12.9094 18.2288 16.5018 17.9115 18.1598C17.7783 18.8613 17.5183 19.0957 17.2678 19.1176C16.7231 19.1654 16.312 18.7541 15.7864 18.4066C14.9645 17.8625 14.5004 17.5242 13.7019 16.9934C12.7793 16.38 13.3808 16.0474 13.9101 15.5022C14.0483 15.3594 16.4552 13.189 16.5014 12.9914C16.5074 12.9667 16.5136 12.8745 16.4582 12.8257C16.4042 12.7767 16.3236 12.793 16.265 12.806C16.1815 12.8244 14.8619 13.6896 12.3017 15.4015C11.9274 15.6567 11.5887 15.7804 11.2842 15.7726C10.9505 15.764 10.3072 15.5794 9.82912 15.4219C9.24437 15.2287 8.77782 15.1259 8.82016 14.8021C8.84135 14.6336 9.07483 14.462 9.51911 14.2874Z" fill="white"/>
</g>
<defs>
<linearGradient id="paint0_linear_69_95" x1="942.189" y1="8.90322" x2="934.382" y2="1882.65" gradientUnits="userSpaceOnUse">
<stop stop-color="#2AABEE"/>
<stop offset="1" stop-color="#229ED9"/>
</linearGradient>
<clipPath id="clip0_69_95">
<rect width="18.7376" height="18.7376" fill="white" transform="translate(5.31693 5) rotate(0.238706)"/>
</clipPath>
</defs>
</svg>
